<?xml version="1.0" encoding="UTF-8" standalone="no" ?>
<!DOCTYPE svg PUBLIC "-//W3C//DTD SVG 1.1//EN" "http://www.w3.org/Graphics/SVG/1.1/DTD/svg11.dtd">
<svg xmlns="http://www.w3.org/2000/svg" xmlns:xlink="http://www.w3.org/1999/xlink" version="1.1" width="24" height="24" viewBox="0 0 500 500" xml:space="preserve">
<desc>Created with Fabric.js 4.6.0</desc>
<defs>
</defs>
<g transform="matrix(1 0 0 1 -409.15 126.64)" id="UFgCFIkSHIuFJpgsvtxtK"  >
<path style="stroke: rgb(235,214,220); stroke-width: 0; stroke-dasharray: none; stroke-linecap: butt; stroke-dashoffset: 0; stroke-linejoin: miter; stroke-miterlimit: 4; fill: rgb(195,190,122); fill-rule: nonzero; opacity: 1;" vector-effect="non-scaling-stroke"  transform=" translate(-162.3, -138.08)" d="M 266.96932 139.88167 C 267.06977 139.88116000000002 267.17028999999997 139.88091 267.2709 139.88091 L 267.27090999999996 139.88091 C 290.46343999999993 139.88091 309.28635999999995 153.37992 309.28635999999995 170.01262 C 309.28635999999995 170.11984999999999 309.28556999999995 170.22695 309.28401999999994 170.33392 L 266.3042899999999 170.33392 C 265.5129299999999 177.20168 264.2974899999999 184.29115000000002 262.63521999999995 191.49126 C 258.80427999999995 208.08487000000002 253.09781999999996 223.10994000000002 246.36225999999994 235.46662 C 269.76183999999995 240.96657000000002 286.67680999999993 256.7628 286.67680999999993 275.37507 C 286.67680999999993 275.52449 286.6757099999999 275.67373 286.6735499999999 275.82277999999997 L 195.9486799999999 275.82277999999997 C 191.6856899999999 276.2906 187.4429399999999 276.27896999999996 183.2860399999999 275.82277999999997 L 178.7655999999999 275.82277999999997 C 154.15130999999988 277.38041 129.01144999999988 268.76054 110.2140799999999 249.96317999999997 C 86.6183999999999 226.36749999999995 79.0593099999999 192.77799999999996 87.53681999999989 162.77909999999997 L 87.53586999999989 162.77814999999998 C 91.22046999999989 150.06940999999998 85.90907999999989 136.0126 73.92190999999988 129.14748999999998 C 59.86194999999988 121.09527999999997 41.915829999999886 125.97111999999997 33.863599999999884 140.03108999999998 C 25.816099999999885 154.08280999999997 30.681529999999885 172.01614999999998 44.72249999999988 180.07522999999998 C 2.135539999999885 155.66768999999996 -12.62934000000012 101.29830999999997 11.766599999999883 58.70060999999998 C 36.167259999999885 16.09464999999998 90.54941999999988 1.3193499999999858 133.1553599999999 25.719999999999985 L 133.1553899999999 25.720009999999984 C 169.9684099999999 46.80303999999998 186.0042899999999 90.26892999999998 173.9447299999999 129.18186999999998 C 181.2448899999999 121.22474999999997 188.8432099999999 114.37318999999998 196.36989999999992 108.82308999999998 C 196.35727999999992 108.80598999999998 196.34467999999993 108.78887999999998 196.3320999999999 108.77174999999998 C 196.6533599999999 108.57027999999998 196.97181999999992 108.36392999999998 197.28733999999992 108.15275999999999 C 197.8754199999999 107.72704999999999 198.46295999999992 107.30933999999999 199.04979999999992 106.89973999999998 C 204.05601999999993 103.12315999999998 208.20231999999993 98.06260999999998 210.93191999999993 91.93181999999999 C 215.15736999999993 82.44129999999998 215.20529999999994 72.14400999999998 211.86854999999994 63.10526999999999 C 211.57409999999993 62.37041999999999 211.28335999999993 61.62932999999999 210.99660999999995 60.88229999999999 C 200.50756999999996 33.557419999999986 199.28569999999993 8.581969999999984 208.26921999999993 5.13351999999999 C 212.68935999999994 3.43678999999999 218.76062999999994 7.26612999999999 225.03755999999993 14.84915999999999 C 228.34171999999992 5.58640999999999 232.73472999999993 -0.08169000000000892 237.46579999999992 0.0008899999999911756 C 244.85505999999992 0.1298699999999912 250.93055999999993 14.24972999999999 253.12029999999993 34.051219999999994 C 265.33311999999995 33.569419999999994 281.07600999999994 38.89093999999999 295.58546999999993 49.43265999999999 C 313.4209899999999 62.390919999999994 324.3306399999999 79.55918999999999 324.5503299999999 92.85746999999999 C 324.5828599999999 93.28008 324.59928999999994 93.70499 324.5992799999999 94.13199999999999 C 324.5992799999999 110.14771999999999 301.49135999999993 123.18732999999999 272.7759699999999 123.54168999999999 C 272.4064399999999 123.59915999999998 272.0365299999999 123.68352999999999 271.6685399999999 123.79603999999999 C 267.8737399999999 124.95622999999999 265.5814899999999 128.71164 266.1425299999999 132.52188999999998 C 266.1358899999999 132.52148 266.1292499999999 132.52106999999998 266.1226199999999 132.52064 C 266.47525999999993 134.89516999999998 266.7580999999999 137.35178 266.96933999999993 139.88165999999998 z M 44.77193 180.10352 C 44.775299999999994 180.10545 44.77867 180.10738 44.782039999999995 180.10931 C 44.77867 180.10738 44.77529 180.10546 44.771919999999994 180.10353 z M 45.18144 180.33329 L 45.179410000000004 180.33532 C 45.046850000000006 180.26036 44.914390000000004 180.18502 44.782050000000005 180.1093 C 44.91483 180.18509999999998 45.04797000000001 180.25977999999998 45.18144 180.33328999999998 z M 259.85309 78.87071 C 261.80369 85.25084 268.56486 88.84582 274.94499 86.89522 C 281.32512 84.94462 284.92010000000005 78.18345 282.96950000000004 71.80332 C 281.01890000000003 65.42319 274.25773000000004 61.82821 267.87760000000003 63.77881 C 261.49747 65.72941 257.90249000000006 72.49058 259.85309 78.87071 z" stroke-linecap="round" />
</g>
<g transform="matrix(1 0 0 1 -68.73 562.55)" id="3iAOlESftJFicAONvl_RN"  >
<path style="stroke: rgb(221,194,117); stroke-width: 0; stroke-dasharray: none; stroke-linecap: butt; stroke-dashoffset: 0; stroke-linejoin: miter; stroke-miterlimit: 4; fill: rgb(108,59,244); fill-rule: nonzero; opacity: 1;" vector-effect="non-scaling-stroke"  transform=" translate(-64.67, -64.67)" d="M 64.67181 0 C 100.37064999999998 0 129.34362 28.97297 129.34362 64.67181 C 129.34362 100.37064999999998 100.37064999999998 129.34362 64.67181 129.34362 C 28.972969999999997 129.34362 0 100.37064999999998 0 64.67181 C 0 28.972969999999997 28.97297 0 64.67181 0 z" stroke-linecap="round" />
</g>
<g transform="matrix(1 0 0 1 -68.73 649.21)" id="0qsB2iL1-v98Qgtc5-bFi"  >
<path style="stroke: rgb(221,194,117); stroke-width: 0; stroke-dasharray: none; stroke-linecap: butt; stroke-dashoffset: 0; stroke-linejoin: miter; stroke-miterlimit: 4; fill: rgb(49,168,247); fill-rule: nonzero; opacity: 1;" vector-effect="non-scaling-stroke"  transform=" translate(-64.67, -64.67)" d="M 64.67181 0 C 100.37064999999998 0 129.34362 28.97297 129.34362 64.67181 C 129.34362 100.37064999999998 100.37064999999998 129.34362 64.67181 129.34362 C 28.972969999999997 129.34362 0 100.37064999999998 0 64.67181 C 0 28.972969999999997 28.97297 0 64.67181 0 z" stroke-linecap="round" />
</g>
<g transform="matrix(0.33 0 0 0.33 -68.73 605.88)" id="QsHr2JTPu3fcx18AjlC6C"  >
<path style="stroke: rgb(221,194,117); stroke-width: 0; stroke-dasharray: none; stroke-linecap: butt; stroke-dashoffset: 0; stroke-linejoin: miter; stroke-miterlimit: 4; fill: rgb(255,243,18); fill-rule: nonzero; opacity: 1;" vector-effect="non-scaling-stroke"  transform=" translate(0, 0)" d="M 0 -64.67181 C 35.69884 -64.67181 64.67181 -35.69883999999999 64.67181 0 C 64.67181 35.69884 35.69883999999999 64.67181 0 64.67181 C -35.69884 64.67181 -64.67181 35.69883999999999 -64.67181 0 C -64.67181 -35.69884 -35.69883999999999 -64.67181 0 -64.67181 z" stroke-linecap="round" />
</g>
<g transform="matrix(0.67 0 0 0.67 -68.73 670.61)" id="2mx_pxbkq58jYHZiajMmm"  >
<path style="stroke: rgb(221,194,117); stroke-width: 0; stroke-dasharray: none; stroke-linecap: butt; stroke-dashoffset: 0; stroke-linejoin: miter; stroke-miterlimit: 4; fill: rgb(255,243,18); fill-rule: nonzero; opacity: 1;" vector-effect="non-scaling-stroke"  transform=" translate(0, 0)" d="M 0 -64.67181 C 35.69884 -64.67181 64.67181 -35.69883999999999 64.67181 0 C 64.67181 35.69884 35.69883999999999 64.67181 0 64.67181 C -35.69884 64.67181 -64.67181 35.69883999999999 -64.67181 0 C -64.67181 -35.69884 -35.69883999999999 -64.67181 0 -64.67181 z" stroke-linecap="round" />
</g>
<g transform="matrix(1 0 0 1 -76.94 357.96)" id="UhLyCKrBn8hgsDZmy8TDF"  >
<path style="stroke: rgb(221,194,117); stroke-width: 0; stroke-dasharray: none; stroke-linecap: butt; stroke-dashoffset: 0; stroke-linejoin: miter; stroke-miterlimit: 4; fill: rgb(108,59,244); fill-rule: nonzero; opacity: 1;" vector-effect="non-scaling-stroke"  transform=" translate(-64.69, -107.96)" d="M 81.42335 127.15321 C 75.88423 128.63741 70.31925 129.35455 64.84136 129.36984 C 88.65557 129.45418 107.95682 148.80742 107.95682 172.64131 C 107.95682 196.5092 88.60046 215.88367 64.73938999999999 215.91303 C 100.41328999999999 215.88365 129.35687 186.92197 129.35687 151.24124 C 129.35687 134.60662 123.06599999999999 119.43239 112.73513999999999 107.96939 C 104.65341999999998 116.96149 93.96392999999999 123.79297 81.42335999999999 127.1532 z M 2.22224 81.44334 C 5.2796400000000006 92.81047000000001 16.98247 99.56147000000001 28.35501 96.51421 C 39.73422 93.46516000000001 46.49492 81.75528 43.44587 70.37607 C 40.39682 58.99686 28.68694 52.23616 17.30773 55.28521 C 5.935189999999999 58.33247 -0.8242599999999989 70.03043 2.21152 81.40335 C -7.01474 46.927200000000006 13.47099 11.454630000000009 47.94675 2.2168800000000033 C 82.42918 -7.022659999999997 117.91367 13.464320000000003 127.15322 47.94675 L 127.15322 47.946760000000005 C 133.03252 69.88862 126.87546 92.23621 112.73512000000001 107.96941000000001 C 100.89536000000001 94.83217 83.74927000000001 86.56945000000002 64.68504000000001 86.56945000000002 C 45.61801000000001 86.56945000000002 28.469670000000015 94.83460000000002 16.629730000000016 107.97522000000002 C 9.998760000000017 100.63029000000002 4.960600000000017 91.65028000000002 2.2222300000000157 81.44335000000002 z M 0.01324 151.24125 C 0.01324 186.92200000000003 28.95685 215.88369 64.63077 215.91304000000002 C 40.76969 215.88369000000003 21.413309999999996 196.50923000000003 21.413309999999996 172.64132 C 21.413309999999996 148.81362000000001 40.70452999999999 129.46423000000001 64.51024 129.36992 C 46.111489999999996 129.3263 28.722109999999994 121.36957000000001 16.629739999999998 107.97521 C 6.301979999999999 119.43752 0.013239999999999696 134.60944 0.013239999999999696 151.24125 z M 64.68506 129.36957 C 64.73718 129.36957 64.78927999999999 129.36966 64.84134999999999 129.36985 C 64.73093999999999 129.37016000000003 64.62056999999999 129.37018 64.51022999999999 129.36992 C 64.56848 129.36969000000002 64.62674999999999 129.36957 64.68504999999999 129.36957 z" stroke-linecap="round" />
</g>
<g transform="matrix(0.5 0.38 -0.81 1.08 175.61 -147.23)" id="C6dYJ3ywPCw1A2Xuc1_T2"  >
<path style="stroke: rgb(235,214,220); stroke-width: 0; stroke-dasharray: none; stroke-linecap: butt; stroke-dashoffset: 0; stroke-linejoin: miter; stroke-miterlimit: 4; fill: rgb(195,190,122); fill-rule: nonzero; opacity: 1;" vector-effect="non-scaling-stroke"  transform=" translate(0, 0)" d="M 0 -66.43357 C 36.67133 -66.43357 66.43357 -36.671330000000005 66.43357 0 C 66.43357 36.67133 36.671330000000005 66.43357 0 66.43357 C -36.67133 66.43357 -66.43357 36.671330000000005 -66.43357 0 C -66.43357 -36.67133 -36.671330000000005 -66.43357 0 -66.43357 z" stroke-linecap="round" />
</g>
<g transform="matrix(1.2 -0.37 0.37 1.2 169.49 -97.94)" id="aSgP_dXwLI296gB9nWDfk"  >
<path style="stroke: rgb(61,15,205); stroke-width: 0; stroke-dasharray: none; stroke-linecap: butt; stroke-dashoffset: 0; stroke-linejoin: miter; stroke-miterlimit: 4; fill: rgb(179,178,108); fill-rule: nonzero; opacity: 1;" vector-effect="non-scaling-stroke"  transform=" translate(0, 0)" d="M 0 -46.91142 C 25.8951 -46.91142 46.91142 -25.8951 46.91142 0 C 46.91142 25.8951 25.8951 46.91142 0 46.91142 C -25.8951 46.91142 -46.91142 25.8951 -46.91142 0 C -46.91142 -25.8951 -25.8951 -46.91142 0 -46.91142 z" stroke-linecap="round" />
</g>
<g transform="matrix(0.6 0.14 -0.3 1.32 202.63 -133.34)" id="7wF2qZ78v0FqpDAN5CW0Q"  >
<path style="stroke: rgb(235,214,220); stroke-width: 0; stroke-dasharray: none; stroke-linecap: butt; stroke-dashoffset: 0; stroke-linejoin: miter; stroke-miterlimit: 4; fill: rgb(195,190,122); fill-rule: nonzero; opacity: 1;" vector-effect="non-scaling-stroke"  transform=" translate(0, 0)" d="M 0 -66.43357 C 36.67133 -66.43357 66.43357 -36.671330000000005 66.43357 0 C 66.43357 36.67133 36.671330000000005 66.43357 0 66.43357 C -36.67133 66.43357 -66.43357 36.671330000000005 -66.43357 0 C -66.43357 -36.67133 -36.671330000000005 -66.43357 0 -66.43357 z" stroke-linecap="round" />
</g>
<g transform="matrix(0.87 0 0 0.87 247.14 -160.52)" id="b9dgIJM8GviJS_umgVILq"  >
<path style="stroke: rgb(248,86,157); stroke-width: 0; stroke-dasharray: none; stroke-linecap: butt; stroke-dashoffset: 0; stroke-linejoin: miter; stroke-miterlimit: 4; fill: rgb(27,147,226); fill-rule: nonzero; opacity: 1;" vector-effect="non-scaling-stroke"  transform=" translate(-48.08, -17.42)" d="M 48.07693 0 C 74.61538999999999 0 96.15386 15.44648 96.15386 34.47874 C 96.15386 34.601440000000004 96.15296 34.72399 96.15118 34.84639 L 0.0026799999999980173 34.84639 C 0.0008899999999980174 34.72399 -1.9827889330414905e-15 34.60144 -1.9827889330414905e-15 34.47874 C -1.9827889330414905e-15 15.446470000000001 21.538459999999997 0 48.07693 0 z" stroke-linecap="round" />
</g>
<g transform="matrix(1.37 -0.42 0.42 1.37 247.14 -236.81)" id="iQwGVUHg1hL1raq8Chkqw"  >
<path style="stroke: rgb(31,204,43); stroke-width: 0; stroke-dasharray: none; stroke-linecap: butt; stroke-dashoffset: 0; stroke-linejoin: miter; stroke-miterlimit: 4; fill: rgb(166,163,250); fill-rule: nonzero; opacity: 1;" vector-effect="non-scaling-stroke"  transform=" translate(-36.16, -33.52)" d="M 0.51053 33.80188 C 2.35896 27.755939999999995 8.946489999999999 23.853649999999995 17.80174 22.62128 C 15.91048 13.85128 17.31892 6.29889 22.38037 2.4848099999999995 C 31.43238 -4.3363700000000005 48.75744 3.3695499999999994 61.0524 19.6855 C 70.3132 31.975 74.0918 45.66129 71.52458 54.58277 C 71.46005 54.8715 71.3843 55.15848 71.29715 55.443509999999996 C 67.98331 66.28259 49.43762 70.23179999999999 29.900510000000004 64.25871 C 10.363400000000006 58.285619999999994 -2.803309999999996 44.64095999999999 0.5105300000000028 33.801869999999994 z" stroke-linecap="round" />
</g>
<g transform="matrix(0.64 -0.25 0.75 1.95 207.14 -260.99)" id="HCFO_Zvm2AuJhX5dYKC3A"  >
<path style="stroke: rgb(31,204,43); stroke-width: 0; stroke-dasharray: none; stroke-linecap: butt; stroke-dashoffset: 0; stroke-linejoin: miter; stroke-miterlimit: 4; fill: rgb(255,243,18); fill-rule: nonzero; opacity: 1;" vector-effect="non-scaling-stroke"  transform=" translate(0, 0)" d="M 0 -25.34965 C 13.99301 -25.34965 25.34965 -13.99301 25.34965 0 C 25.34965 13.99301 13.99301 25.34965 0 25.34965 C -13.99301 25.34965 -25.34965 13.99301 -25.34965 0 C -25.34965 -13.99301 -13.99301 -25.34965 0 -25.34965 z" stroke-linecap="round" />
</g>
<g transform="matrix(-0.69 -0.01 -0.04 2.09 216.41 -262.61)" id="1945xbQ_ZXcrSIXuZyZZL"  >
<path style="stroke: rgb(31,204,43); stroke-width: 0; stroke-dasharray: none; stroke-linecap: butt; stroke-dashoffset: 0; stroke-linejoin: miter; stroke-miterlimit: 4; fill: rgb(255,243,18); fill-rule: nonzero; opacity: 1;" vector-effect="non-scaling-stroke"  transform=" translate(0, 0)" d="M 0 -25.34965 C 13.99301 -25.34965 25.34965 -13.99301 25.34965 0 C 25.34965 13.99301 13.99301 25.34965 0 25.34965 C -13.99301 25.34965 -25.34965 13.99301 -25.34965 0 C -25.34965 -13.99301 -13.99301 -25.34965 0 -25.34965 z" stroke-linecap="round" />
</g>
<g transform="matrix(1.37 -0.42 0.42 1.37 201.38 -225.05)" id="o8Se9-crzhil6uvo3I9_f"  >
<path style="stroke: rgb(180,11,136); stroke-width: 0; stroke-dasharray: none; stroke-linecap: butt; stroke-dashoffset: 0; stroke-linejoin: miter; stroke-miterlimit: 4; fill: rgb(210,64,109); fill-rule: nonzero; opacity: 1;" vector-effect="non-scaling-stroke"  transform=" translate(-20.52, -21.12)" d="M 33.77926 5.17732 C 42.57717 12.825230000000001 43.51052 26.17257 35.8626 34.9705 C 28.21469 43.76841 14.867350000000002 44.70176 6.069420000000001 37.05384 C 3.2034700000000007 34.56251 1.1720700000000006 31.46638 8.881784197001252e-16 28.11973 C 4.949440000000001 26.78491 9.5685 24.015430000000002 13.18207 19.85849 C 18.12983 14.16674 20.23942 6.970319999999999 19.63203 0.0021599999999999397 C 24.64477 -0.06925000000000006 29.70084 1.63201 33.77926 5.1773299999999995 z" stroke-linecap="round" />
</g>
<g transform="matrix(1.37 -0.42 0.42 1.37 246.38 -190.49)" id="aBuE7iJ4XoVRtwW5ttBY1"  >
<path style="stroke: rgb(244,1,179); stroke-width: 0; stroke-dasharray: none; stroke-linecap: butt; stroke-dashoffset: 0; stroke-linejoin: miter; stroke-miterlimit: 4; fill: rgb(108,59,244); fill-rule: nonzero; opacity: 1;" vector-effect="non-scaling-stroke"  transform=" translate(-5.01, -4.85)" d="M 5.01249 0 C 7.77938 0 10.02498 2.24559 10.02498 5.01249 C 10.02498 5.06349 10.02422 5.114319999999999 10.022699999999999 5.16496 C 9.60742 5.06528 9.173969999999999 5.01248 8.72825 5.01248 C 5.9584399999999995 5.01248 3.6619599999999988 7.0514399999999995 3.2588799999999996 9.70929 C 1.3559899999999996 8.997869999999999 -0.000010000000000509601 7.162569999999999 -0.000010000000000509601 5.012479999999999 C -0.000010000000000509601 2.245589999999999 2.2455799999999995 -0.000010000000000509601 5.012479999999999 -0.000010000000000509601 z" stroke-linecap="round" />
</g>
<g transform="matrix(1.3 -0.4 0.4 1.3 251.28 -240.29)" id="en_Cv_Ebvpumid7FYQFAN"  >
<path style="stroke: rgb(95,89,18); stroke-width: 0; stroke-dasharray: none; stroke-linecap: butt; stroke-dashoffset: 0; stroke-linejoin: miter; stroke-miterlimit: 4; fill: rgb(108,59,244); fill-rule: nonzero; opacity: 1;" vector-effect="non-scaling-stroke"  transform=" translate(0, 0)" d="M 0 -8.88031 C 4.90193 -8.88031 8.88031 -4.90193 8.88031 0 C 8.88031 4.90193 4.90193 8.88031 0 8.88031 C -4.90193 8.88031 -8.88031 4.90193 -8.88031 0 C -8.88031 -4.90193 -4.90193 -8.88031 0 -8.88031 z" stroke-linecap="round" />
</g>
<g transform="matrix(0.98 -0.98 0.98 0.98 110.89 -170.65)" id="TYqfMhJt64rJrjBVgn0nE"  >
<path style="stroke: rgb(221,194,117); stroke-width: 0; stroke-dasharray: none; stroke-linecap: butt; stroke-dashoffset: 0; stroke-linejoin: miter; stroke-miterlimit: 4; fill: rgb(49,168,247); fill-rule: nonzero; opacity: 1;" vector-effect="non-scaling-stroke"  transform=" translate(-64.69, -107.95)" d="M 21.41011 172.62387 C 21.41011 196.49178 40.766490000000005 215.86624 64.62757 215.89559000000003 C 28.953650000000003 215.86624000000003 0.010040000000003602 186.90455000000003 0.010040000000003602 151.22380000000004 C 0.010040000000003602 126.96140000000004 13.393000000000004 105.80576000000005 33.174800000000005 94.74101000000005 L 33.174800000000005 94.74003000000005 C 41.60307 90.10047000000004 46.099340000000005 80.14273000000004 43.46595000000001 70.45025000000004 C 40.37720000000001 59.08176000000004 28.643790000000006 52.36197000000004 17.275290000000005 55.45072000000004 C 5.913460000000006 58.53766000000004 -0.8051199999999952 70.25914000000004 2.2703400000000062 81.62140000000004 C -7.076209999999994 47.17766000000004 13.285570000000007 11.633800000000036 47.728880000000004 2.2757600000000338 C 82.17885000000001 -7.084089999999966 117.73464 13.278900000000034 127.09449000000001 47.72886000000003 L 127.09450000000001 47.72888000000003 C 136.45434 82.17885000000004 116.09135 117.73463000000004 81.64138000000001 127.09448000000003 C 75.64699000000002 128.72312000000002 69.61912000000001 129.45184000000003 63.70160000000001 129.36302000000003 C 40.26772000000001 129.88474000000002 21.41011000000001 149.06548000000004 21.41011000000001 172.62387000000004 z M 2.2812 81.66136 C 2.3112 81.77135 2.342 81.88091 2.37361 81.99003 L 2.3715200000000003 81.99003 C 2.3411500000000003 81.88062000000001 2.31104 81.77106 2.2812 81.66136 z" stroke-linecap="round" />
</g>
<g transform="matrix(1.22 0 0 1.22 208 -61.02)" id="bc2Fc-o6-7mBkwLl6oeaf"  >
<path style="stroke: rgb(248,86,157); stroke-width: 0; stroke-dasharray: none; stroke-linecap: butt; stroke-dashoffset: 0; stroke-linejoin: miter; stroke-miterlimit: 4; fill: rgb(27,147,226); fill-rule: nonzero; opacity: 1;" vector-effect="non-scaling-stroke"  transform=" translate(-48.08, -17.42)" d="M 48.07693 0 C 74.61538999999999 0 96.15386 15.44648 96.15386 34.47874 C 96.15386 34.601440000000004 96.15296 34.72399 96.15118 34.84639 L 0.0026799999999980173 34.84639 C 0.0008899999999980174 34.72399 -1.9827889330414905e-15 34.60144 -1.9827889330414905e-15 34.47874 C -1.9827889330414905e-15 15.446470000000001 21.538459999999997 0 48.07693 0 z" stroke-linecap="round" />
</g>
<g transform="matrix(1 0 0 1 357.8 -47.37)" id="pyYqop5Ci6Z-ovQNdAgvd"  >
<path style="stroke: rgb(31,204,43); stroke-width: 0; stroke-dasharray: none; stroke-linecap: butt; stroke-dashoffset: 0; stroke-linejoin: miter; stroke-miterlimit: 4; fill: rgb(166,163,250); fill-rule: nonzero; opacity: 1;" vector-effect="non-scaling-stroke"  transform=" translate(-30.3, -35.93)" d="M 10.80065 1.22517 C 16.778399999999998 -0.8331299999999999 23.80747 2.20258 30.00947 8.64226 C 35.99289 1.9573200000000002 42.93076 -1.3424099999999992 48.991460000000004 0.510530000000001 C 59.83054 3.824370000000001 63.77975000000001 22.370060000000002 57.80666000000001 41.90717 C 53.30761000000001 56.6229 44.45617000000001 67.72446 35.729560000000006 70.89144 C 35.458040000000004 71.00894000000001 35.18135000000001 71.11634000000001 34.89952000000001 71.21338 C 24.182690000000008 74.90348 10.08683000000001 62.22098 3.4355400000000103 42.90424 C -3.21574999999999 23.587490000000003 0.08381000000001038 4.91527 10.80064000000001 1.2251699999999985 z" stroke-linecap="round" />
</g>
<g transform="matrix(0.78 0 0 0.78 357.8 -85.38)" id="3Uaxpao-xOgGQYdAHUAiz"  >
<path style="stroke: rgb(248,86,157); stroke-width: 0; stroke-dasharray: none; stroke-linecap: butt; stroke-dashoffset: 0; stroke-linejoin: miter; stroke-miterlimit: 4; fill: rgb(27,147,226); fill-rule: nonzero; opacity: 1;" vector-effect="non-scaling-stroke"  transform=" translate(-48.08, -17.42)" d="M 48.07693 0 C 74.61538999999999 0 96.15386 15.44648 96.15386 34.47874 C 96.15386 34.601440000000004 96.15296 34.72399 96.15118 34.84639 L 0.0026799999999980173 34.84639 C 0.0008899999999980174 34.72399 -1.9827889330414905e-15 34.60144 -1.9827889330414905e-15 34.47874 C -1.9827889330414905e-15 15.446470000000001 21.538459999999997 0 48.07693 0 z" stroke-linecap="round" />
</g>
<g transform="matrix(0.77 -0.26 0.48 1.38 452.25 -50.59)" id="aIWA0D_MJv0ou-M_ysAQD"  >
<path style="stroke: rgb(31,204,43); stroke-width: 0; stroke-dasharray: none; stroke-linecap: butt; stroke-dashoffset: 0; stroke-linejoin: miter; stroke-miterlimit: 4; fill: rgb(166,163,250); fill-rule: nonzero; opacity: 1;" vector-effect="non-scaling-stroke"  transform=" translate(0, 0)" d="M 0 -25.34965 C 13.99301 -25.34965 25.34965 -13.99301 25.34965 0 C 25.34965 13.99301 13.99301 25.34965 0 25.34965 C -13.99301 25.34965 -25.34965 13.99301 -25.34965 0 C -25.34965 -13.99301 -13.99301 -25.34965 0 -25.34965 z" stroke-linecap="round" />
</g>
<g transform="matrix(0.77 0.24 -0.43 1.4 467.57 -50.91)" id="Ft2yjV4n5qqZLuhmQ8k1V"  >
<path style="stroke: rgb(31,204,43); stroke-width: 0; stroke-dasharray: none; stroke-linecap: butt; stroke-dashoffset: 0; stroke-linejoin: miter; stroke-miterlimit: 4; fill: rgb(166,163,250); fill-rule: nonzero; opacity: 1;" vector-effect="non-scaling-stroke"  transform=" translate(0, 0)" d="M 0 -25.34965 C 13.99301 -25.34965 25.34965 -13.99301 25.34965 0 C 25.34965 13.99301 13.99301 25.34965 0 25.34965 C -13.99301 25.34965 -25.34965 13.99301 -25.34965 0 C -25.34965 -13.99301 -13.99301 -25.34965 0 -25.34965 z" stroke-linecap="round" />
</g>
<g transform="matrix(1 0 0 1 357.8 -93.8)" id="UR9DgpBcGrKhrq4JNsN78"  >
<path style="stroke: rgb(31,204,43); stroke-width: 0; stroke-dasharray: none; stroke-linecap: butt; stroke-dashoffset: 0; stroke-linejoin: miter; stroke-miterlimit: 4; fill: rgb(255,243,18); fill-rule: nonzero; opacity: 1;" vector-effect="non-scaling-stroke"  transform=" translate(-8.83, -18.79)" d="M 3.16246 0.39176 C 4.81548 0.010129999999999972 6.77881 1.6718099999999998 8.627889999999999 4.67571 C 10.262289999999998 1.5531599999999997 12.103879999999998 -0.23942000000000085 13.77862 0.02583999999999964 C 17.1839 0.5651799999999997 18.61619 9.409199999999998 16.97568 19.766939999999998 C 16.474040000000002 22.934199999999997 15.74287 25.878059999999998 14.87209 28.423569999999998 C 14.86483 33.421279999999996 13.76322 36.93967 11.70966 37.413779999999996 C 11.09543 37.555589999999995 10.43835 37.41526999999999 9.7602 37.028789999999994 C 9.10811 37.46524999999999 8.45981 37.652899999999995 7.834759999999999 37.55389999999999 C 5.751659999999999 37.223969999999994 4.40687 33.786359999999995 4.052159999999999 28.795599999999993 C 3.0061099999999987 26.317259999999994 2.0715199999999987 23.431929999999994 1.3502599999999987 20.307789999999994 C -1.0087700000000015 10.089719999999993 -0.1969000000000014 1.1673399999999923 3.162469999999999 0.39176999999999396 z" stroke-linecap="round" />
</g>
<g transform="matrix(1 0 0 0.24 233.03 543.94)" id="VmWRcT8ziOcVfHhwvlgfr"  >
<path style="stroke: rgb(160,119,130); stroke-width: 0; stroke-dasharray: none; stroke-linecap: butt; stroke-dashoffset: 0; stroke-linejoin: miter; stroke-miterlimit: 4; fill: rgb(252,134,29); fill-rule: nonzero; opacity: 1;" vector-effect="non-scaling-stroke"  transform=" translate(0, 0)" d="M -73.35907 56.6077 C -73.35907 -15.170970000000004 -59.42455 -73.35907 -42.23545 -73.35907 L 42.23546 -73.35907 L 42.23546 -73.35907 C 59.42456 -73.35907 73.35908 -15.170960000000001 73.35908 56.607699999999994 L 73.35908 56.607699999999994 L 73.35908 56.607699999999994 C 73.35908 65.85923 71.56306000000001 73.35907 69.34757 73.35907 L -69.34755 73.35907 L -69.34755 73.35907 C -71.56305 73.35907 -73.35906 65.85923 -73.35906 56.6077 z" stroke-linecap="round" />
</g>
<g transform="matrix(-0.15 -0.35 0.08 -0.04 405.84 587.48)" id="BoBJMg704fjo7zZkl30hM"  >
<path style="stroke: rgb(160,119,130); stroke-width: 0; stroke-dasharray: none; stroke-linecap: butt; stroke-dashoffset: 0; stroke-linejoin: miter; stroke-miterlimit: 4; fill: rgb(252,134,29); fill-rule: nonzero; opacity: 1;" vector-effect="non-scaling-stroke"  transform=" translate(0, 0)" d="M -73.35907 56.32267 C -73.35907 -15.298580000000001 -59.42455 -73.35907999999999 -42.23545 -73.35907999999999 L 42.23546 -73.35907999999999 L 42.23546 -73.35907999999999 C 59.42456 -73.35907999999999 73.35908 -15.298579999999994 73.35908 56.32267 L 73.35908 56.64444 L 73.35908 56.64444 C 73.35908 65.87568 71.56306000000001 73.35907 69.34757 73.35907 L -69.34755 73.35907 L -69.34755 73.35907 C -71.56305 73.35907 -73.35906 65.87567 -73.35906 56.64444 z" stroke-linecap="round" />
</g>
<g transform="matrix(-0.55 0 0 0.09 533.24 568.11)" id="ZhKFmU212OZ70Zwz6VQkA"  >
<path style="stroke: rgb(160,119,130); stroke-width: 0; stroke-dasharray: none; stroke-linecap: butt; stroke-dashoffset: 0; stroke-linejoin: miter; stroke-miterlimit: 4; fill: rgb(53,237,53); fill-rule: nonzero; opacity: 1;" vector-effect="non-scaling-stroke"  transform=" translate(0, 0)" d="M -73.35907 56.32267 C -73.35907 -15.298580000000001 -63.672920000000005 -73.35907999999999 -51.72446000000001 -73.35907999999999 L 51.72445999999999 -73.35907999999999 L 51.72445999999999 -73.35907999999999 C 63.672929999999994 -73.35907999999999 73.35906999999999 -15.298579999999994 73.35906999999999 56.32267 L 73.35906999999999 56.64444 L 73.35906999999999 56.64444 C 73.35906999999999 65.87568 72.11062999999999 73.35907 70.57058999999998 73.35907 L -70.57060000000001 73.35907 L -70.57060000000001 73.35907 C -72.11063000000001 73.35907 -73.35908 65.87567 -73.35908 56.64444 z" stroke-linecap="round" />
</g>
<g transform="matrix(0.26 0.36 -0.76 0.55 -80.15 -31.72)" id="c7UiU7dSRU7wsh11irLlx"  >
<path style="stroke: rgb(235,214,220); stroke-width: 0; stroke-dasharray: none; stroke-linecap: butt; stroke-dashoffset: 0; stroke-linejoin: miter; stroke-miterlimit: 4; fill: rgb(195,190,122); fill-rule: nonzero; opacity: 1;" vector-effect="non-scaling-stroke"  transform=" translate(0, 0)" d="M 0 -66.43357 C 36.67133 -66.43357 66.43357 -36.671330000000005 66.43357 0 C 66.43357 36.67133 36.671330000000005 66.43357 0 66.43357 C -36.67133 66.43357 -66.43357 36.671330000000005 -66.43357 0 C -66.43357 -36.67133 -36.671330000000005 -66.43357 0 -66.43357 z" stroke-linecap="round" />
</g>
<g transform="matrix(0.87 0 0 0.87 -94.3 -0.07)" id="iZrfOprJwcc6Zb8lK7uu8"  >
<path style="stroke: rgb(61,15,205); stroke-width: 0; stroke-dasharray: none; stroke-linecap: butt; stroke-dashoffset: 0; stroke-linejoin: miter; stroke-miterlimit: 4; fill: rgb(179,178,108); fill-rule: nonzero; opacity: 1;" vector-effect="non-scaling-stroke"  transform=" translate(0, 0)" d="M 0 -46.91142 C 25.8951 -46.91142 46.91142 -25.8951 46.91142 0 C 46.91142 25.8951 25.8951 46.91142 0 46.91142 C -25.8951 46.91142 -46.91142 25.8951 -46.91142 0 C -46.91142 -25.8951 -25.8951 -46.91142 0 -46.91142 z" stroke-linecap="round" />
</g>
<g transform="matrix(0.37 0.21 -0.47 0.81 -64.95 -16.94)" id="hI6NT2iEFeIsIDZiF8w10"  >
<path style="stroke: rgb(235,214,220); stroke-width: 0; stroke-dasharray: none; stroke-linecap: butt; stroke-dashoffset: 0; stroke-linejoin: miter; stroke-miterlimit: 4; fill: rgb(195,190,122); fill-rule: nonzero; opacity: 1;" vector-effect="non-scaling-stroke"  transform=" translate(0, 0)" d="M 0 -66.43357 C 36.67133 -66.43357 66.43357 -36.671330000000005 66.43357 0 C 66.43357 36.67133 36.671330000000005 66.43357 0 66.43357 C -36.67133 66.43357 -66.43357 36.671330000000005 -66.43357 0 C -66.43357 -36.67133 -36.671330000000005 -66.43357 0 -66.43357 z" stroke-linecap="round" />
</g>
<g transform="matrix(0.61 0 0 0.61 -28.24 -24.87)" id="dFyto-lgzjWiZCJAGFX8a"  >
<path style="stroke: rgb(248,86,157); stroke-width: 0; stroke-dasharray: none; stroke-linecap: butt; stroke-dashoffset: 0; stroke-linejoin: miter; stroke-miterlimit: 4; fill: rgb(27,147,226); fill-rule: nonzero; opacity: 1;" vector-effect="non-scaling-stroke"  transform=" translate(-48.08, -17.42)" d="M 48.07693 0 C 74.61538999999999 0 96.15386 15.44648 96.15386 34.47874 C 96.15386 34.601440000000004 96.15296 34.72399 96.15118 34.84639 L 0.0026799999999980173 34.84639 C 0.0008899999999980174 34.72399 -1.9827889330414905e-15 34.60144 -1.9827889330414905e-15 34.47874 C -1.9827889330414905e-15 15.446470000000001 21.538459999999997 0 48.07693 0 z" stroke-linecap="round" />
</g>
<g transform="matrix(1 0 0 1 -14.12 -76.92)" id="O1sjhKDIWrDM_kYcGKgDX"  >
<path style="stroke: rgb(31,204,43); stroke-width: 0; stroke-dasharray: none; stroke-linecap: butt; stroke-dashoffset: 0; stroke-linejoin: miter; stroke-miterlimit: 4; fill: rgb(166,163,250); fill-rule: nonzero; opacity: 1;" vector-effect="non-scaling-stroke"  transform=" translate(-36.16, -33.52)" d="M 0.51053 33.80188 C 2.35896 27.755939999999995 8.946489999999999 23.853649999999995 17.80174 22.62128 C 15.91048 13.85128 17.31892 6.29889 22.38037 2.4848099999999995 C 31.43238 -4.3363700000000005 48.75744 3.3695499999999994 61.0524 19.6855 C 70.3132 31.975 74.0918 45.66129 71.52458 54.58277 C 71.46005 54.8715 71.3843 55.15848 71.29715 55.443509999999996 C 67.98331 66.28259 49.43762 70.23179999999999 29.900510000000004 64.25871 C 10.363400000000006 58.285619999999994 -2.803309999999996 44.64095999999999 0.5105300000000028 33.801869999999994 z" stroke-linecap="round" />
</g>
<g transform="matrix(0.48 -0.03 0.1 1.46 -35.89 -101.22)" id="wSNefh8TrW7pVFmeivO2m"  >
<path style="stroke: rgb(31,204,43); stroke-width: 0; stroke-dasharray: none; stroke-linecap: butt; stroke-dashoffset: 0; stroke-linejoin: miter; stroke-miterlimit: 4; fill: rgb(255,243,18); fill-rule: nonzero; opacity: 1;" vector-effect="non-scaling-stroke"  transform=" translate(0, 0)" d="M 0 -25.34965 C 13.99301 -25.34965 25.34965 -13.99301 25.34965 0 C 25.34965 13.99301 13.99301 25.34965 0 25.34965 C -13.99301 25.34965 -25.34965 13.99301 -25.34965 0 C -25.34965 -13.99301 -13.99301 -25.34965 0 -25.34965 z" stroke-linecap="round" />
</g>
<g transform="matrix(-0.46 -0.15 -0.45 1.39 -29.37 -100.41)" id="yB7YstSPqxyb-zG4aSJLt"  >
<path style="stroke: rgb(31,204,43); stroke-width: 0; stroke-dasharray: none; stroke-linecap: butt; stroke-dashoffset: 0; stroke-linejoin: miter; stroke-miterlimit: 4; fill: rgb(255,243,18); fill-rule: nonzero; opacity: 1;" vector-effect="non-scaling-stroke"  transform=" translate(0, 0)" d="M 0 -25.34965 C 13.99301 -25.34965 25.34965 -13.99301 25.34965 0 C 25.34965 13.99301 13.99301 25.34965 0 25.34965 C -13.99301 25.34965 -25.34965 13.99301 -25.34965 0 C -25.34965 -13.99301 -13.99301 -25.34965 0 -25.34965 z" stroke-linecap="round" />
</g>
<g transform="matrix(1 0 0 1 -47.07 -78.4)" id="KKf74iqLXTV7RCbWQKbcf"  >
<path style="stroke: rgb(180,11,136); stroke-width: 0; stroke-dasharray: none; stroke-linecap: butt; stroke-dashoffset: 0; stroke-linejoin: miter; stroke-miterlimit: 4; fill: rgb(210,64,109); fill-rule: nonzero; opacity: 1;" vector-effect="non-scaling-stroke"  transform=" translate(-20.52, -21.12)" d="M 33.77926 5.17732 C 42.57717 12.825230000000001 43.51052 26.17257 35.8626 34.9705 C 28.21469 43.76841 14.867350000000002 44.70176 6.069420000000001 37.05384 C 3.2034700000000007 34.56251 1.1720700000000006 31.46638 8.881784197001252e-16 28.11973 C 4.949440000000001 26.78491 9.5685 24.015430000000002 13.18207 19.85849 C 18.12983 14.16674 20.23942 6.970319999999999 19.63203 0.0021599999999999397 C 24.64477 -0.06925000000000006 29.70084 1.63201 33.77926 5.1773299999999995 z" stroke-linecap="round" />
</g>
<g transform="matrix(1 0 0 1 -24.08 -46.15)" id="IvLllxrMNDArWNI_v9_Rc"  >
<path style="stroke: rgb(244,1,179); stroke-width: 0; stroke-dasharray: none; stroke-linecap: butt; stroke-dashoffset: 0; stroke-linejoin: miter; stroke-miterlimit: 4; fill: rgb(108,59,244); fill-rule: nonzero; opacity: 1;" vector-effect="non-scaling-stroke"  transform=" translate(-5.01, -4.85)" d="M 5.01249 0 C 7.77938 0 10.02498 2.24559 10.02498 5.01249 C 10.02498 5.06349 10.02422 5.114319999999999 10.022699999999999 5.16496 C 9.60742 5.06528 9.173969999999999 5.01248 8.72825 5.01248 C 5.9584399999999995 5.01248 3.6619599999999988 7.0514399999999995 3.2588799999999996 9.70929 C 1.3559899999999996 8.997869999999999 -0.000010000000000509601 7.162569999999999 -0.000010000000000509601 5.012479999999999 C -0.000010000000000509601 2.245589999999999 2.2455799999999995 -0.000010000000000509601 5.012479999999999 -0.000010000000000509601 z" stroke-linecap="round" />
</g>
<g transform="matrix(0.95 0 0 0.95 -10.65 -78.4)" id="ifMBzSHfXLgW3259Y3Dwb"  >
<path style="stroke: rgb(95,89,18); stroke-width: 0; stroke-dasharray: none; stroke-linecap: butt; stroke-dashoffset: 0; stroke-linejoin: miter; stroke-miterlimit: 4; fill: rgb(108,59,244); fill-rule: nonzero; opacity: 1;" vector-effect="non-scaling-stroke"  transform=" translate(0, 0)" d="M 0 -8.88031 C 4.90193 -8.88031 8.88031 -4.90193 8.88031 0 C 8.88031 4.90193 4.90193 8.88031 0 8.88031 C -4.90193 8.88031 -8.88031 4.90193 -8.88031 0 C -8.88031 -4.90193 -4.90193 -8.88031 0 -8.88031 z" stroke-linecap="round" />
</g>
<g transform="matrix(0.68 -0.68 0.68 0.68 -136.09 -50.59)" id="f9bwM7m4A8y8qNLvadX3d"  >
<path style="stroke: rgb(221,194,117); stroke-width: 0; stroke-dasharray: none; stroke-linecap: butt; stroke-dashoffset: 0; stroke-linejoin: miter; stroke-miterlimit: 4; fill: rgb(49,168,247); fill-rule: nonzero; opacity: 1;" vector-effect="non-scaling-stroke"  transform=" translate(-64.69, -107.95)" d="M 21.41011 172.62387 C 21.41011 196.49178 40.766490000000005 215.86624 64.62757 215.89559000000003 C 28.953650000000003 215.86624000000003 0.010040000000003602 186.90455000000003 0.010040000000003602 151.22380000000004 C 0.010040000000003602 126.96140000000004 13.393000000000004 105.80576000000005 33.174800000000005 94.74101000000005 L 33.174800000000005 94.74003000000005 C 41.60307 90.10047000000004 46.099340000000005 80.14273000000004 43.46595000000001 70.45025000000004 C 40.37720000000001 59.08176000000004 28.643790000000006 52.36197000000004 17.275290000000005 55.45072000000004 C 5.913460000000006 58.53766000000004 -0.8051199999999952 70.25914000000004 2.2703400000000062 81.62140000000004 C -7.076209999999994 47.17766000000004 13.285570000000007 11.633800000000036 47.728880000000004 2.2757600000000338 C 82.17885000000001 -7.084089999999966 117.73464 13.278900000000034 127.09449000000001 47.72886000000003 L 127.09450000000001 47.72888000000003 C 136.45434 82.17885000000004 116.09135 117.73463000000004 81.64138000000001 127.09448000000003 C 75.64699000000002 128.72312000000002 69.61912000000001 129.45184000000003 63.70160000000001 129.36302000000003 C 40.26772000000001 129.88474000000002 21.41011000000001 149.06548000000004 21.41011000000001 172.62387000000004 z M 2.2812 81.66136 C 2.3112 81.77135 2.342 81.88091 2.37361 81.99003 L 2.3715200000000003 81.99003 C 2.3411500000000003 81.88062000000001 2.31104 81.77106 2.2812 81.66136 z" stroke-linecap="round" />
</g>
<g transform="matrix(0.85 0 0 0.85 -68.31 25.93)" id="7VYKHs9NWHaG-CMubfgsY"  >
<path style="stroke: rgb(248,86,157); stroke-width: 0; stroke-dasharray: none; stroke-linecap: butt; stroke-dashoffset: 0; stroke-linejoin: miter; stroke-miterlimit: 4; fill: rgb(27,147,226); fill-rule: nonzero; opacity: 1;" vector-effect="non-scaling-stroke"  transform=" translate(-48.08, -17.42)" d="M 48.07693 0 C 74.61538999999999 0 96.15386 15.44648 96.15386 34.47874 C 96.15386 34.601440000000004 96.15296 34.72399 96.15118 34.84639 L 0.0026799999999980173 34.84639 C 0.0008899999999980174 34.72399 -1.9827889330414905e-15 34.60144 -1.9827889330414905e-15 34.47874 C -1.9827889330414905e-15 15.446470000000001 21.538459999999997 0 48.07693 0 z" stroke-linecap="round" />
</g>
<g transform="matrix(-0.55 0 0 0.09 480.79 613.48)" id="k-x1CNaX1bJibihDpNsEK"  >
<path style="stroke: rgb(160,119,130); stroke-width: 0; stroke-dasharray: none; stroke-linecap: butt; stroke-dashoffset: 0; stroke-linejoin: miter; stroke-miterlimit: 4; fill: rgb(53,237,53); fill-rule: nonzero; opacity: 1;" vector-effect="non-scaling-stroke"  transform=" translate(0, 0)" d="M -73.35907 56.32267 C -73.35907 -15.298580000000001 -63.672920000000005 -73.35907999999999 -51.72446000000001 -73.35907999999999 L 51.72445999999999 -73.35907999999999 L 51.72445999999999 -73.35907999999999 C 63.672929999999994 -73.35907999999999 73.35906999999999 -15.298579999999994 73.35906999999999 56.32267 L 73.35906999999999 56.64444 L 73.35906999999999 56.64444 C 73.35906999999999 65.87568 72.11062999999999 73.35907 70.57058999999998 73.35907 L -70.57060000000001 73.35907 L -70.57060000000001 73.35907 C -72.11063000000001 73.35907 -73.35908 65.87567 -73.35908 56.64444 z" stroke-linecap="round" />
</g>
<g transform="matrix(2.2 0 0 2.2 250 249.57)" id="u40HDVV2K-IducMGvLuvH"  >
<path style="stroke: rgb(31,204,43); stroke-width: 0; stroke-dasharray: none; stroke-linecap: butt; stroke-dashoffset: 0; stroke-linejoin: miter; stroke-miterlimit: 4; fill: rgb(255,255,255); fill-rule: nonzero; opacity: 1;" vector-effect="non-scaling-stroke"  transform=" translate(-86.91, -113.2)" d="M 148.33586 103.02693 C 141.8258 124.32037 129.01791 140.38414999999998 116.39063999999999 144.96672 C 115.99775 145.13674 115.59738999999999 145.29215000000002 115.18957999999999 145.43256 C 99.68248999999999 150.77208 79.286 132.42069999999998 69.66167999999999 104.46967 C 63.78538999999999 87.40369999999999 63.27682999999999 70.68539999999999 67.30154999999999 59.03690999999999 L 54.26974999999999 59.03690999999999 C 54.26771999999999 58.89876999999999 54.26672999999999 58.76044999999999 54.26672999999999 58.621959999999994 C 54.26672999999999 40.18405 72.17683 24.727879999999992 96.19272999999998 20.719009999999997 C 94.92225999999998 9.855889999999997 96.45435999999998 1.461949999999998 100.33134999999999 0.5668799999999976 L 100.33133999999998 0.5668699999999977 C 102.72322999999999 0.014659999999997675 105.56413999999998 2.4190799999999975 108.23972999999998 6.765679999999998 C 110.60467999999997 2.247399999999998 113.26942999999999 -0.3464400000000021 115.69275999999998 0.03738999999999759 C 119.73234999999998 0.6771899999999976 121.85313999999998 9.393579999999996 121.17823999999997 20.77209 C 145.03624999999997 24.86269 162.79059999999998 40.26443 162.79059999999998 58.62198 C 162.79059999999998 58.76047 162.78958999999998 58.89877 162.78758 59.03693 L 149.65103 59.03693 C 153.53446 70.466 153.38824 86.50136 148.33587 103.02694 z M 160.99692 97.24947 C 161.3939 96.31426 162.47384 95.87793 163.40905999999998 96.2749 C 172.09124999999997 99.96027000000001 176.14198 109.98617 172.45659999999998 118.66836 L 155.16924999999998 159.3948 C 153.12924999999998 166.54341 146.54823 171.77704 138.74483999999998 171.77704 L 78.31248999999998 171.77704 C 70.95764999999999 171.77704 64.68869999999998 167.1278 62.284249999999986 160.60793999999999 L 38.153609999999986 106.40963999999998 C 37.58321999999998 105.12852999999998 37.183309999999985 103.81473999999999 36.94408999999999 102.49369999999998 L 1.839589999999987 102.49369999999998 C 0.8236099999999869 102.49369999999998 -1.3100631690576847e-14 101.67008999999997 -1.3100631690576847e-14 100.65410999999997 C -1.3100631690576847e-14 91.22211999999998 7.646139999999987 83.57597999999997 17.078129999999987 83.57597999999997 L 37.57306999999999 83.57597999999997 C 40.06351999999999 83.57597999999997 42.42946999999999 84.10905999999997 44.56302999999998 85.06733999999997 C 44.56640999999998 85.06518999999997 44.56978999999998 85.06303999999997 44.57315999999998 85.06088999999997 L 44.57315999999998 85.07188999999997 C 45.18553999999998 85.34741999999997 45.77873999999998 85.65798999999997 46.35021999999998 86.00103999999997 C 49.08938999999998 87.62382999999997 51.33603999999998 89.99024999999997 52.81212999999998 92.82223999999998 L 79.54236999999998 152.85931999999997 L 137.39193999999998 152.85931999999997 z M 73.31392 202.22302 C 79.98557 202.22302 85.40024 207.63769 85.40024 214.30934 C 85.40024 220.98099 79.98557 226.39566 73.31392 226.39566 C 66.64227 226.39566 61.227599999999995 220.98099 61.227599999999995 214.30934 C 61.227599999999995 207.63769 66.64227 202.22302 73.31392 202.22302 z M 143.74339 202.22302 C 150.41504 202.22302 155.82971 207.63769 155.82971 214.30934 C 155.82971 220.98099 150.41504 226.39566 143.74339 226.39566 C 137.07174 226.39566 131.65707 220.98099 131.65707 214.30934 C 131.65707 207.63769 137.07174 202.22302 143.74339 202.22302 z M 61.23436 195.38146 C 61.23436 185.94947 68.8805 178.30333000000002 78.31249 178.30333000000002 L 138.74484 178.30333000000002 C 148.17683000000002 178.30333000000002 155.82297 185.94947000000002 155.82297 195.38146 C 155.82297 196.39744000000002 154.99936 197.22105 153.98338 197.22105 L 63.07394000000001 197.22105 C 62.05796000000001 197.22105 61.234350000000006 196.39744 61.234350000000006 195.38146 z" stroke-linecap="round" />
</g>
</svg>